<mxfile host="app.diagrams.net" modified="2020-12-07T16:06:05.448Z" agent="5.0 (Windows)" etag="g5l2EjQQQpnrsxN8joaG" version="13.11.0" type="github">
  <diagram id="nfCYAS274oWFY3z8HJ-K" name="Page-1">
    <mxGraphModel dx="1424" dy="782" grid="1" gridSize="10" guides="1" tooltips="1" connect="1" arrows="1" fold="1" page="1" pageScale="1" pageWidth="850" pageHeight="1100" math="0" shadow="0">
      <root>
        <mxCell id="0" />
        <mxCell id="1" parent="0" />
        <mxCell id="yWy2YU67HCedXq4QivRC-1" value="" style="shape=ellipse;html=1;fillColor=#000000;strokeWidth=2;verticalLabelPosition=bottom;verticalAlignment=top;perimeter=ellipsePerimeter;" vertex="1" parent="1">
          <mxGeometry x="120" y="160" width="40" height="40" as="geometry" />
        </mxCell>
        <mxCell id="yWy2YU67HCedXq4QivRC-2" value="" style="html=1;shape=mxgraph.sysml.actFinal;strokeWidth=2;verticalLabelPosition=bottom;verticalAlignment=top;" vertex="1" parent="1">
          <mxGeometry x="440" y="810" width="40" height="40" as="geometry" />
        </mxCell>
        <mxCell id="yWy2YU67HCedXq4QivRC-5" value="" style="edgeStyle=orthogonalEdgeStyle;rounded=0;orthogonalLoop=1;jettySize=auto;html=1;" edge="1" parent="1" source="yWy2YU67HCedXq4QivRC-6" target="yWy2YU67HCedXq4QivRC-8">
          <mxGeometry relative="1" as="geometry" />
        </mxCell>
        <mxCell id="yWy2YU67HCedXq4QivRC-6" value="login" style="shape=rect;html=1;rounded=1;whiteSpace=wrap;align=center;" vertex="1" parent="1">
          <mxGeometry x="200" y="150" width="140" height="60" as="geometry" />
        </mxCell>
        <mxCell id="yWy2YU67HCedXq4QivRC-7" value="" style="endArrow=classic;html=1;exitX=1;exitY=0.5;exitDx=0;exitDy=0;entryX=0;entryY=0.5;entryDx=0;entryDy=0;" edge="1" parent="1" source="yWy2YU67HCedXq4QivRC-1" target="yWy2YU67HCedXq4QivRC-6">
          <mxGeometry width="50" height="50" relative="1" as="geometry">
            <mxPoint x="440" y="180" as="sourcePoint" />
            <mxPoint x="490" y="130" as="targetPoint" />
          </mxGeometry>
        </mxCell>
        <mxCell id="yWy2YU67HCedXq4QivRC-8" value="Dash Board" style="shape=rect;html=1;rounded=1;whiteSpace=wrap;align=center;" vertex="1" parent="1">
          <mxGeometry x="390" y="150" width="140" height="60" as="geometry" />
        </mxCell>
        <mxCell id="yWy2YU67HCedXq4QivRC-37" value="" style="edgeStyle=orthogonalEdgeStyle;rounded=0;orthogonalLoop=1;jettySize=auto;html=1;" edge="1" parent="1" source="yWy2YU67HCedXq4QivRC-10" target="yWy2YU67HCedXq4QivRC-25">
          <mxGeometry relative="1" as="geometry" />
        </mxCell>
        <mxCell id="yWy2YU67HCedXq4QivRC-10" value="add licence" style="shape=rect;html=1;rounded=1;whiteSpace=wrap;align=center;" vertex="1" parent="1">
          <mxGeometry x="390" y="440" width="140" height="60" as="geometry" />
        </mxCell>
        <mxCell id="yWy2YU67HCedXq4QivRC-11" value="" style="edgeStyle=orthogonalEdgeStyle;rounded=0;orthogonalLoop=1;jettySize=auto;html=1;" edge="1" parent="1" source="yWy2YU67HCedXq4QivRC-12" target="yWy2YU67HCedXq4QivRC-13">
          <mxGeometry relative="1" as="geometry" />
        </mxCell>
        <mxCell id="yWy2YU67HCedXq4QivRC-12" value="add Items/Menu" style="shape=rect;html=1;rounded=1;whiteSpace=wrap;align=center;" vertex="1" parent="1">
          <mxGeometry x="390" y="620" width="140" height="60" as="geometry" />
        </mxCell>
        <mxCell id="yWy2YU67HCedXq4QivRC-13" value="add item cost" style="shape=rect;html=1;rounded=1;whiteSpace=wrap;align=center;" vertex="1" parent="1">
          <mxGeometry x="390" y="710" width="140" height="60" as="geometry" />
        </mxCell>
        <mxCell id="yWy2YU67HCedXq4QivRC-16" value="" style="edgeStyle=orthogonalEdgeStyle;rounded=0;orthogonalLoop=1;jettySize=auto;html=1;" edge="1" parent="1" source="yWy2YU67HCedXq4QivRC-8" target="yWy2YU67HCedXq4QivRC-23">
          <mxGeometry relative="1" as="geometry">
            <mxPoint x="540" y="180" as="sourcePoint" />
            <mxPoint x="460" y="250" as="targetPoint" />
          </mxGeometry>
        </mxCell>
        <mxCell id="yWy2YU67HCedXq4QivRC-19" value="" style="edgeStyle=orthogonalEdgeStyle;rounded=0;orthogonalLoop=1;jettySize=auto;html=1;exitX=0.5;exitY=1;exitDx=0;exitDy=0;entryX=0.5;entryY=0;entryDx=0;entryDy=0;entryPerimeter=0;" edge="1" parent="1" source="yWy2YU67HCedXq4QivRC-13" target="yWy2YU67HCedXq4QivRC-2">
          <mxGeometry relative="1" as="geometry">
            <mxPoint x="574.5" y="760" as="sourcePoint" />
            <mxPoint x="574.5" y="800" as="targetPoint" />
          </mxGeometry>
        </mxCell>
        <mxCell id="yWy2YU67HCedXq4QivRC-24" value="" style="edgeStyle=orthogonalEdgeStyle;rounded=0;orthogonalLoop=1;jettySize=auto;html=1;exitX=0.5;exitY=1;exitDx=0;exitDy=0;" edge="1" parent="1" source="yWy2YU67HCedXq4QivRC-23">
          <mxGeometry relative="1" as="geometry">
            <mxPoint x="460" y="340" as="targetPoint" />
          </mxGeometry>
        </mxCell>
        <mxCell id="yWy2YU67HCedXq4QivRC-23" value="Add Restaurant" style="rounded=1;whiteSpace=wrap;html=1;" vertex="1" parent="1">
          <mxGeometry x="400" y="250" width="120" height="60" as="geometry" />
        </mxCell>
        <mxCell id="yWy2YU67HCedXq4QivRC-38" value="" style="edgeStyle=orthogonalEdgeStyle;rounded=0;orthogonalLoop=1;jettySize=auto;html=1;" edge="1" parent="1" source="yWy2YU67HCedXq4QivRC-25" target="yWy2YU67HCedXq4QivRC-12">
          <mxGeometry relative="1" as="geometry" />
        </mxCell>
        <mxCell id="yWy2YU67HCedXq4QivRC-25" value="Add timing" style="rounded=1;whiteSpace=wrap;html=1;" vertex="1" parent="1">
          <mxGeometry x="400" y="530" width="120" height="60" as="geometry" />
        </mxCell>
        <mxCell id="yWy2YU67HCedXq4QivRC-34" value="" style="edgeStyle=orthogonalEdgeStyle;rounded=0;orthogonalLoop=1;jettySize=auto;html=1;" edge="1" parent="1" source="yWy2YU67HCedXq4QivRC-26" target="yWy2YU67HCedXq4QivRC-10">
          <mxGeometry relative="1" as="geometry" />
        </mxCell>
        <mxCell id="yWy2YU67HCedXq4QivRC-26" value="" style="rhombus;whiteSpace=wrap;html=1;" vertex="1" parent="1">
          <mxGeometry x="420" y="330" width="80" height="80" as="geometry" />
        </mxCell>
        <mxCell id="yWy2YU67HCedXq4QivRC-31" value="" style="html=1;shape=mxgraph.sysml.flowFinal;strokeWidth=2;verticalLabelPosition=bottom;verticalAlignment=top;" vertex="1" parent="1">
          <mxGeometry x="660" y="350" width="40" height="40" as="geometry" />
        </mxCell>
        <mxCell id="yWy2YU67HCedXq4QivRC-32" value="" style="edgeStyle=orthogonalEdgeStyle;rounded=0;orthogonalLoop=1;jettySize=auto;html=1;exitX=1;exitY=0.5;exitDx=0;exitDy=0;entryX=0;entryY=0.5;entryDx=0;entryDy=0;entryPerimeter=0;" edge="1" parent="1">
          <mxGeometry relative="1" as="geometry">
            <mxPoint x="500" y="369.5" as="sourcePoint" />
            <mxPoint x="660" y="369.5" as="targetPoint" />
          </mxGeometry>
        </mxCell>
        <mxCell id="yWy2YU67HCedXq4QivRC-33" value="No licenence" style="text;html=1;align=center;verticalAlign=middle;resizable=0;points=[];autosize=1;" vertex="1" parent="1">
          <mxGeometry x="550" y="340" width="90" height="20" as="geometry" />
        </mxCell>
        <mxCell id="yWy2YU67HCedXq4QivRC-35" value="If licence avialable" style="text;html=1;align=center;verticalAlign=middle;resizable=0;points=[];autosize=1;" vertex="1" parent="1">
          <mxGeometry x="460" y="410" width="120" height="20" as="geometry" />
        </mxCell>
      </root>
    </mxGraphModel>
  </diagram>
</mxfile>
